<svg width="74" height="49" viewBox="0 0 74 49" fill="none" xmlns="http://www.w3.org/2000/svg">
<path fill-rule="evenodd" clip-rule="evenodd" d="M62.5998 8.20878C58.3578 12.9318 54.8528 17.7488 54.8108 18.9128C54.7558 20.4408 54.3758 20.0558 53.4428 17.5288C52.7318 15.6038 52.3428 13.6908 52.5778 13.2788C53.0788 12.3988 49.3118 12.3078 46.2608 13.1268C45.0918 13.4408 43.5548 14.7798 42.8468 16.1038C41.7088 18.2308 41.8148 18.7318 43.7618 20.4208C45.8008 22.1888 45.8788 22.6758 44.8088 26.9258C44.1718 29.4528 43.8848 32.4118 44.1688 33.4998C45.1338 37.1908 42.8078 43.6078 40.1368 44.6238C38.0968 45.3998 37.8828 45.8188 38.9008 47.0458C41.4588 50.1278 44.3638 48.8268 46.5678 43.6098L48.6468 38.6898L53.5168 40.2718C56.1948 41.1408 59.0618 42.0838 59.8868 42.3668C60.8768 42.7058 60.5368 43.0238 58.8868 43.3008C55.2878 43.9048 53.4038 45.5958 55.0898 46.7088C56.4008 47.5748 70.3298 47.6288 72.6368 46.7768C76.0018 45.5338 72.1428 37.6128 66.4058 33.9858C62.9818 31.8218 62.2488 30.8928 62.9698 29.6318C64.1188 27.6238 67.6008 19.4538 69.8338 13.5288C71.3038 9.62878 71.8468 1.15578 70.6998 0.00877952C70.4868 -0.20422 66.8418 3.48478 62.5998 8.20878ZM2.7428 1.59078C2.1188 3.38078 2.4468 9.47778 3.3388 12.6478C3.9888 14.9598 7.6138 23.2398 10.3818 28.7358C11.7058 31.3658 11.6088 31.5408 6.9898 34.8598C2.2478 38.2658 -0.820198 43.2438 0.193802 45.8858C0.834802 47.5558 18.3378 48.2258 19.3318 46.6178C19.8338 45.8058 15.9638 42.8008 15.1368 43.3598C14.5048 43.7868 12.6118 43.4698 13.0688 43.0138C13.6868 42.3948 25.1018 39.3618 25.3328 39.7548C25.4208 39.9058 26.3258 41.9408 27.3418 44.2788C28.8718 47.7958 29.6638 48.5288 31.9318 48.5288C35.1788 48.5288 36.6528 45.9628 33.8298 45.2238C31.3298 44.5708 29.6388 40.1658 29.7238 34.5288C29.7608 32.0538 29.3168 28.5318 28.7358 26.7028C27.8268 23.8348 27.9718 23.0678 29.7838 21.1378C32.3358 18.4218 32.3668 17.9478 30.1368 15.6108C27.0948 12.4228 21.1798 11.8878 20.9758 14.7828C20.9468 15.1978 20.6268 16.7158 20.2658 18.1548L19.6088 20.7728L18.3988 17.9008C16.5868 13.6018 3.3608 -0.178221 2.7428 1.59078ZM70.3688 6.25678C70.0788 10.5358 69.8668 11.2078 65.5438 21.5288C63.8158 25.6538 61.9488 29.3598 61.3948 29.7648C60.3348 30.5388 65.0838 35.0198 68.0408 36.0348C70.1688 36.7658 73.2308 43.1888 72.4378 45.2578C71.9248 46.5938 71.3858 46.4228 69.0528 44.1878C65.5358 40.8188 63.7478 40.6878 66.8868 44.0288L69.2358 46.5288H62.5608C58.7778 46.5288 55.8868 46.0958 55.8868 45.5288C55.8868 44.9788 57.2368 44.5288 58.8868 44.5288C64.3888 44.5288 62.3658 41.8708 55.3868 39.9298C53.1868 39.3178 50.6648 38.5038 49.7818 38.1218C48.5468 37.5868 47.6768 38.5908 46.0038 42.4778C44.4438 46.1038 43.2748 47.5288 41.8588 47.5288C40.7738 47.5288 39.8868 47.0788 39.8868 46.5288C39.8868 45.9788 40.5448 45.5288 41.3478 45.5288C43.0998 45.5288 45.9858 36.6238 45.2038 33.6338C44.9108 32.5128 45.2268 29.2808 45.9058 26.4498C46.9308 22.1778 46.9068 21.1558 45.7638 20.4318C44.6818 19.7468 44.6678 19.5558 45.6958 19.5438C46.4158 19.5358 46.7078 19.0478 46.3448 18.4608C45.9818 17.8728 45.0548 17.6338 44.2858 17.9288C42.0828 18.7748 42.6538 16.8058 45.1098 15.0858C48.8518 12.4638 50.5778 13.1528 52.4318 18.0088C54.1998 22.6378 55.8868 23.1608 55.8868 19.0808C55.8868 16.7678 68.7068 1.37278 70.0058 2.12578C70.3458 2.32278 70.5098 4.18178 70.3688 6.25678ZM10.8298 9.27878C14.6938 13.5528 17.3308 17.4958 18.0178 20.0288L19.1038 24.0288L21.0958 18.6958C22.9378 13.7668 23.2848 13.4118 25.6758 14.0118C28.0408 14.6058 30.7768 17.0748 30.8548 18.6848C30.8728 19.0458 29.8748 19.0808 28.6368 18.7618C26.5548 18.2248 26.4988 18.3208 27.8868 20.0478C29.0638 21.5118 29.0848 21.7308 27.9808 21.0648C26.8198 20.3658 26.7138 20.8978 27.3768 24.1238C27.8178 26.2718 28.2698 30.0538 28.3818 32.5288C28.6908 39.4068 29.8558 43.4218 32.1648 45.5728L34.2638 47.5288H31.9898C30.2188 47.5288 29.2628 46.4588 27.6738 42.6988L25.6328 37.8678L21.0098 39.3478C10.5018 42.7108 9.6868 43.5338 15.1368 45.2818C18.0938 46.2308 17.7678 46.3338 11.5258 46.4268L4.6648 46.5288L7.0258 44.6148C8.3248 43.5618 9.1058 42.4188 8.7628 42.0738C8.4188 41.7288 6.7128 42.6458 4.9698 44.1118C1.3608 47.1498 0.347802 46.8128 1.3288 42.9028C1.9748 40.3318 3.3708 38.8238 10.3378 33.1778C13.1148 30.9278 13.1878 30.6868 11.5878 29.0868C10.6518 28.1508 9.8868 26.8378 9.8868 26.1688C9.8868 25.4998 8.9428 23.1688 7.7898 20.9898C4.5308 14.8338 1.9698 2.52878 3.9478 2.52878C4.3768 2.52878 7.4738 5.56578 10.8298 9.27878Z" fill="black"/>
</svg>
